<svg height="511pt" viewBox="-83 0 511 511.99913" width="511pt" xmlns="http://www.w3.org/2000/svg"><path d="m176.34375 328.433594c-2.117188 0-4.128906-.339844-5.980469-1.007813-5.914062-2.132812-10.03125-8.203125-9.378906-13.824219.042969-.285156.070313-.476562.09375-.660156.15625-1.171875-.601563-2.191406-1.679687-2.363281-.117188-.019531-.222657-.027344-.332032-.027344-.972656 0-1.808594.703125-1.988281 1.667969l-.03125.207031c-.027344.144531-.050781.289063-.066406.4375l-.019531.140625c-1.367188 7.460938-8.628907 13.527344-16.195313 13.53125l-.238281-.003906c-7.917969-.136719-15.261719-6.90625-16.035156-14.78125-.105469-1.019531-.957032-1.808594-1.980469-1.828125-1.054688 0-1.917969.75-2.058594 1.738281-.789063 5.570313-5.101563 10.558594-10.488281 12.132813-1.273438.375-2.621094.566406-4 .566406-4.371094 0-8.621094-1.902344-11.375-5.089844-4.808594-5.558593-5.007813-13.71875-4.785156-22.296875l2.148437-85.0625c.09375-3.421875.308594-6.410156 2-8.378906 1.992187-2.335938 5.585937-2.636719 8.492187-2.636719.832032 0 1.6875.027344 2.542969.070313l60.820313 2.960937c8.425781.414063 16.847656.890625 24.757812 1.339844l.417969.023437c17.320313.980469 35.230469 1.996094 53.105469 2.34375 3.566406.058594 7.097656.421876 8.714844 2.625 1.195312 1.640626 1.195312 4.210938 1.195312 6.273438v7.917969c.03125 25.976562.0625 50.484375-4.347656 75.578125-1.28125 7.304687-2.941406 14.890625-7.835938 20.320312-3.730468 4.148438-9.441406 6.625-15.28125 6.625-1.839844 0-3.632812-.25-5.332031-.742187-7.148437-2.0625-13.027344-8.628907-14.292969-15.96875-.140625-.828125-.765625-1.480469-1.59375-1.65625-.125-.027344-.265625-.042969-.402344-.042969-.683593 0-1.320312.339844-1.703124.914062-3.257813 4.890626-7.804688 11.023438-14.058594 14.992188-4.015625 2.558594-8.566406 3.964844-12.808594 3.964844zm-41.753906-98.300782c-.796875 0-1.527344.472657-1.851563 1.203126-5.78125 12.976562-5.425781 28.214843.945313 40.761718 6.359375 12.542969 18.820312 21.945313 32.519531 24.539063 2.53125.480469 5.117187.726562 7.6875.726562 12.054687 0 23.941406-5.316406 33.46875-14.964843 5.519531-5.585938 7.835937-13.898438 9.574219-21.253907.25-1.070312 1.136718-6.800781 1.78125-12.554687 1.203125-10.910156.554687-12.828125-.144532-13.769532-.4375-.589843-1.078124-.945312-1.773437-.988281l-4.902344-.304687c-25.277343-1.5625-51.414062-3.175782-77.28125-3.394532l-.019531-2v2zm0 0" fill="#696b77"/><path d="m231.25 203.210938c-4.589844-.160157-9.214844-.351563-13.746094-.570313l-2.015625-.097656 3.664063-63.429688 2.023437.144531c4.941407.355469 9.285157.699219 13.285157 1.042969l1.925781.164063-3.167969 62.816406zm0 0" fill="#696b77"/><path d="m205.574219 443.609375c-.09375-.023437-.210938-.035156-.324219-.035156l-67.117188-.457031.175782-2.148438c.261718-3.203125.519531-5.792969.808594-8.160156.441406-3.679688 1.113281-7.082032 1.996093-10.105469l.417969-1.441406h1.5c.117188 0 .230469.007812.335938.019531l63.4375.472656.195312 1.769532c.632812 5.761718.980469 11.855468 1.042969 18.121093l.023437 2.5625zm0 0" fill="#696b77"/><path d="m204.632812 468.351562c-.101562-.019531-.203124-.039062-.3125-.039062l-66.378906.195312-.085937-1.914062c-.265625-5.824219-.28125-11.707031-.050781-17.480469l.074218-1.933593 67.335938.453124c.15625 0 .304687-.019531.4375-.042968l2.394531-.398438-.066406 2.421875c-.140625 5.421875-.476563 11.125-.996094 16.945313l-.195313 2.183594zm0 0" fill="#696b77"/><path d="m177.734375 505.921875c-3.449219 0-6.972656-.285156-10.269531-.597656-6.378906-.59375-14.316406-1.332031-19.785156-5.730469-6.78125-5.480469-8.496094-15.566406-9.230469-23.742188l-.082031-1.125-.175782-2.15625 68.203125-.203124-.257812 2.234374-.046875.519532c-1.113282 9.242187-3.402344 20.582031-11.320313 26.359375-4.167969 3.03125-9.578125 4.441406-17.035156 4.441406zm0 0" fill="#696b77"/><path d="m142.925781 417.21875 1.648438-2.953125c4.703125-8.394531 12.105469-13.269531 22.640625-14.898437.597656-.09375 1.203125-.179688 1.808594-.242188 2.285156-.273438 4.703124-.410156 7.367187-.410156 4.695313 0 9.421875.4375 13.425781.871094 3.125.34375 5.898438.730468 8.226563 1.972656 5.335937 2.851562 7.105469 9.769531 7.617187 12.609375l.019532.109375c.050781.34375.105468.695312.167968 1.039062l.433594 2.375zm0 0" fill="#696b77"/><path d="m109.152344 197.097656.515625-58.558594 1.875-.101562c4.179687-.230469 7.949219-.414062 11.535156-.5625l2.082031-.085938.042969 60.09375zm0 0" fill="#696b77"/><path d="m227.683594 73.144531c-1.132813 0-2.230469-.175781-3.257813-.527343-4.203125-1.4375-6.757812-4.71875-7.011719-9.003907-.296874-5.132812 2.734376-10.25 7.367188-12.445312 1.324219-.628907 2.644531-.945313 3.929688-.945313 2.386718 0 4.632812 1.082032 6.496093 3.121094 3.128907 3.398438 4.914063 9.644531 2.058594 14.503906-1.886719 3.214844-5.648437 5.296875-9.582031 5.296875zm0 0" fill="#fff"/><path d="m115.234375 73.144531c-3.933594 0-7.691406-2.082031-9.578125-5.300781-2.882812-4.898438-1.144531-11.003906 2.0625-14.5 1.867188-2.042969 4.113281-3.121094 6.492188-3.121094 1.292968 0 2.613281.316406 3.933593.945313 4.628907 2.199219 7.660157 7.3125 7.363281 12.441406-.109374 2.019531-1.011718 6.957031-7.007812 9.007813-1.035156.351562-2.132812.527343-3.265625.527343zm0 0" fill="#fff"/><g fill="#ed6d66"><path d="m319.398438 388.90625c.757812-1.480469 1.324218-2.890625 1.746093-4.308594 1.621094-5.414062.808594-10.820312-2.171875-14.46875-1.851562-2.273437-4.765625-3.761718-7.796875-3.980468-.273437-.019532-.535156-.03125-.796875-.03125-2.359375 0-4.460937.78125-6.078125 2.261718-2.105469 1.914063-3.035156 4.515625-3.9375 7.027344-.941406 2.625-1.753906 4.890625-3.636719 5.660156-.375.152344-.78125.226563-1.214843.226563-1.421875 0-3.035157-.863281-4.007813-2.15625-1.214844-1.582031-1.867187-3.863281-1.980468-6.96875-.300782-7.664063 2.449218-15.410157 7.539062-21.25l1.46875-1.683594 1.511719 1.648437c5.234375 5.699219 12.808593 9.101563 20.257812 9.101563 3.886719 0 7.484375-.882813 10.695313-2.628906 1.332031-.726563 2.617187-1.621094 3.8125-2.648438l2.144531-1.847656 1.023437 2.640625c3.046876 7.863281 2.316407 17.1875-1.902343 24.339844-3.140625 5.332031-8.175781 9.535156-14.175781 11.839844l-4.867188 1.871093zm0 0"/><path d="m327.050781 279.078125c-2.484375-.796875-5.078125-1.199219-7.707031-1.199219-2.097656 0-4.179688.257813-6.1875.773438l-2.441406.625-.054688-2.523438c-.089844-4.429687-.425781-8.8125-1-13.019531l-.191406-1.402344 1.261719-.648437c3.839843-1.96875 8.195312-3.007813 12.59375-3.007813 1.386719 0 2.769531.101563 4.113281.3125l1.507812.234375.175782 1.515625c.632812 5.578125.8125 11.144531.539062 16.539063l-.132812 2.597656zm0 0"/><path d="m308.273438 255.636719c-1.035157-4.929688-2.417969-9.84375-4.105469-14.605469l-.507813-1.421875 1.230469-.875c4.664063-3.320313 10.101563-5.359375 15.726563-5.902344l1.527343-.148437.539063 1.4375c2.210937 5.894531 3.941406 12.015625 5.140625 18.203125l.5 2.578125-2.621094-.207032c-.820313-.0625-1.65625-.097656-2.480469-.097656-4.234375 0-8.34375.832032-12.210937 2.46875l-2.238281.945313zm0 0"/><path d="m322.851562 300.925781c-2.152343-.90625-4.328124-1.367187-6.46875-1.367187-1.609374 0-3.226562.257812-4.800781.777344l-3.179687 1.039062.589844-3.292969c.753906-4.226562 1.265624-8.589843 1.511718-12.972656l.070313-1.277344 1.191406-.46875c2.339844-.925781 4.960937-1.414062 7.578125-1.414062 2.875 0 5.746094.582031 8.308594 1.6875l1.40625.605469-.21875 1.515624c-.695313 4.84375-1.8125 9.542969-3.316406 13.96875l-.691407 2.035157zm0 0"/><path d="m301.179688 233.480469c-1.609376-3.640625-3.402344-7.171875-5.328126-10.496094l-1.042968-1.796875 1.835937-.972656c4.277344-2.269532 8.085938-5.234375 11.324219-8.8125l1.707031-1.890625 1.429688 2.105469c3.085937 4.550781 5.875 9.480468 8.289062 14.660156l1.117188 2.394531-2.609375.425781c-4.867188.789063-9.644532 2.609375-13.816406 5.261719l-1.964844 1.246094zm0 0"/><path d="m294.710938 81c-5.105469 0-10.179688-2.890625-12.617188-7.191406-2.820312-4.972656-2.128906-11.984375 1.601562-16.3125 3.648438-4.210938 7.816407-5.09375 10.667969-5.09375 2.117188 0 4.273438.488281 6.230469 1.410156 4.71875 2.226562 9.269531 7.4375 7.898438 15.390625-.476563 2.746094-1.90625 5.429687-4.023438 7.558594-2.136719 2.140625-4.820312 3.578125-7.554688 4.050781-.714843.125-1.457031.1875-2.203124.1875zm0 0"/><path d="m212.132812 441.136719c-.101562-8.082031-.683593-15.851563-1.742187-23.085938l-.332031-2.289062h1.476562c6.5-6.703125 10.691406-15.800781 11.535156-25.097657.71875-7.890624-.96875-16.171874-4.746093-23.316406l-1.480469-2.792968 3.160156-.140626c5.015625-.21875 10.085938-.488281 15.070313-.808593l1.367187-.085938.574219 1.246094c6.503906 14.109375 7.496094 30.664063 2.726563 45.421875-4.25 13.160156-12.945313 24.730469-24.484376 32.578125l-3.082031 2.09375zm0 0"/><path d="m204.71875 134.179688c-15.140625-.773438-30.296875-1.167969-45.042969-1.167969-1.519531 0-3.035156.003906-4.554687.011719-4.535156.027343-9.203125.09375-14.269532.199218l-2.105468.046875.503906-15.699219 2.046875.117188c10.027344.574219 20.210937.867188 30.265625.867188 11.078125 0 22.28125-.351563 33.304688-1.046876l2.152343-.136718-.226562 16.917968zm0 0"/><path d="m184.734375 95.683594c-.363281-6.488282-.296875-13.09375.203125-19.632813l.171875-2.269531 2.230469.464844c6.410156 1.335937 16.558594 5.777344 16.492187 12.011718-.054687 4.953126-6.4375 7.914063-9.179687 8.957032-2.3125.894531-4.824219 1.671875-7.453125 2.304687l-2.332031.558594zm0 0"/><path d="m189.042969 23.089844c-8.421875-.589844-16.742188-.992188-24.730469-1.195313l-.925781-.023437-2.125-.066406.199219-2.117188c.460937-4.898438 3.328124-9.398438 7.488281-11.746094 2.15625-1.222656 4.679687-1.871094 7.289062-1.871094 3.246094 0 6.40625 1.011719 8.898438 2.839844 3.726562 2.75 6.042969 7.417969 6.042969 12.183594v2.144531zm0 0"/><path d="m172.632812 99.242188c-3.203124 0-6.4375-.25-9.609374-.742188l-1.730469-.269531.550781-24.558594 1.742188-.1875c3.300781-.355469 6.5625-.535156 9.699218-.535156 1.957032 0 3.902344.070312 5.773438.207031l2.003906.152344-.15625 2c-.566406 7.171875-.628906 14.40625-.1875 21.5l.117188 1.917968-1.914063.195313c-2.078125.210937-4.191406.320313-6.289063.320313zm0 0"/><path d="m154.730469 96.597656c-2.21875-.671875-4.382813-1.457031-6.429688-2.335937-5.183593-2.246094-8.023437-4.960938-8.441406-8.070313-.335937-2.519531 1.089844-5.390625 3.632813-7.320312 2.601562-1.960938 5.910156-2.882813 9.097656-3.589844.621094-.136719 1.242187-.257812 1.863281-.378906l3.3125-.660156-.511719 23.121093zm0 0"/><path d="m131.296875 447.832031c-15.777344-5.007812-24.085937-22.636719-25.128906-36.902343-1.222657-16.5625 4.617187-33.679688 9.3125-47.429688l.503906-1.484375 1.5625.136719c5.015625.441406 9.925781.832031 14.59375 1.15625l3.523437.246094-2.023437 2.894531c-4.839844 6.929687-7.542969 15.3125-7.609375 23.601562-.074219 9.925781 3.597656 19.929688 10.074219 27.449219.136719.152344.324219.296875.589843.441406l1.449219.792969-.507812 1.574219c-1.183594 3.664062-2.042969 7.707031-2.558594 12.023437-.527344 4.414063-.925781 9.023438-1.179687 13.699219l-.140626 2.582031zm0 0"/><path d="m51.515625 81c-.746094 0-1.488281-.0625-2.207031-.1875-5.636719-.988281-10.613282-5.980469-11.578125-11.613281-.160157-.957031-.238281-1.875-.238281-2.746094 0-5.503906 3.039062-10.230469 8.132812-12.640625 1.960938-.921875 4.117188-1.410156 6.246094-1.410156 2.855468 0 7.019531.882812 10.652344 5.089844 3.742187 4.335937 4.433593 11.351562 1.605468 16.316406-2.429687 4.300781-7.5 7.191406-12.613281 7.191406zm0 0"/><path d="m24.503906 391.679688c-5.996094-2.300782-11.03125-6.507813-14.175781-11.839844-4.21875-7.152344-4.945313-16.476563-1.902344-24.339844l1.023438-2.640625 2.144531 1.847656c1.195312 1.027344 2.480469 1.921875 3.816406 2.652344 3.203125 1.742187 6.804688 2.625 10.691406 2.625 7.449219 0 15.019532-3.402344 20.253907-9.105469l1.511719-1.644531 1.46875 1.683594c5.09375 5.839843 7.84375 13.585937 7.542968 21.253906-.117187 3.101563-.769531 5.382813-1.992187 6.980469-.960938 1.273437-2.574219 2.140625-4 2.140625-.429688 0-.839844-.074219-1.210938-.226563-1.882812-.769531-2.695312-3.035156-3.636719-5.65625-.902343-2.515625-1.835937-5.117187-3.9375-7.027344-1.621093-1.484374-3.722656-2.265624-6.078124-2.265624-.261719 0-.527344.011718-.792969.03125-3.039063.21875-5.953125 1.707031-7.800781 3.976562-2.980469 3.652344-3.792969 9.0625-2.175782 14.476562.4375 1.4375 1.023438 2.886719 1.746094 4.304688l2.371094 4.644531zm0 0"/><path d="m42.316406 234.359375c-4.609375-2.933594-9.910156-4.828125-15.324218-5.480469l-2.777344-.332031 1.214844-2.523437c2.355468-4.886719 5.136718-9.554688 8.261718-13.871094l1.273438-1.757813 1.644531 1.410157c3.960937 3.386718 8.402344 6.015624 13.203125 7.816406l2.226562.835937-1.203124 2.050781c-2.039063 3.472657-3.929688 7.167969-5.613282 10.976563l-.941406 2.125zm0 0"/><path d="m35.394531 257.066406c-3.824219-1.613281-8.054687-2.46875-12.234375-2.46875-1.289062 0-2.589844.082032-3.863281.242188l-2.652344.328125.433594-2.640625c1.035156-6.277344 2.695313-12.503906 4.941406-18.503906l.503907-1.355469 1.445312.054687c6.304688.246094 12.371094 2.324219 17.542969 6.011719l1.230469.875-.507813 1.421875c-1.6875 4.757812-3.070313 9.671875-4.105469 14.601562l-.5 2.375zm0 0"/><path d="m20.871094 299.742188c-1.542969-4.421876-2.753906-9.058594-3.597656-13.785157l-.273438-1.535156 1.417969-.640625c2.648437-1.195312 5.640625-1.828125 8.644531-1.828125 2.617188 0 5.234375.488281 7.574219 1.410156l1.1875.472657.074219 1.277343c.246093 4.378907.753906 8.746094 1.511718 12.96875l.589844 3.292969-3.183594-1.039062c-1.574218-.515626-3.191406-.777344-4.804687-.777344-2.144531 0-4.320313.460937-6.476563 1.371094l-1.960937.828124zm0 0"/><path d="m16.140625 277.554688c-.496094-5.449219-.53125-11.007813-.105469-16.527344l.117188-1.496094 1.472656-.304688c1.761719-.367187 3.59375-.554687 5.441406-.554687 4.40625 0 8.765625 1.042969 12.605469 3.011719l1.261719.648437-.191406 1.402344c-.574219 4.207031-.910157 8.585937-1 13.019531l-.054688 2.527344-2.445312-.632812c-2.003907-.515626-4.089844-.777344-6.191407-.777344-2.835937 0-5.613281.46875-8.261719 1.390625l-2.417968.84375zm0 0"/></g><path d="m320.328125 355.910156c-7.546875 0-15.210937-4.152344-19.527344-10.582031-4.355469-6.484375-5.503906-15.726563-2.996093-24.117187 2.320312-7.777344 7.4375-13.847657 14.046874-16.648438 1.515626-.632812 3.042969-.949219 4.550782-.949219 2.585937 0 5.25.917969 7.921875 2.722657 8.820312 5.953124 15.5 20.289062 15.359375 28.652343-.132813 7.867188-4.40625 15.417969-10.628906 18.792969-2.566407 1.394531-5.582032 2.128906-8.726563 2.128906zm0 0" fill="#f9d889"/><path d="m278.199219 198.722656c-.175781-12.511718-.378907-26.691406-4.09375-39.9375l-.445313-1.585937c-.425781-1.53125-.90625-3.269531-1.460937-4.992188l-.753907-2.332031 2.4375-.269531c1.25-.140625 2.53125-.210938 3.8125-.210938 11.007813 0 21.933594 5.152344 28.511719 13.445313 8.285157 10.4375 9.960938 26.074218 4.066407 38.027344-5.363282 10.902343-17.273438 18.882812-29.636719 19.847656l-2.125.167968zm0 0" fill="#f9d889"/><path d="m185.992188 361.125c-28.910157 0-58.066407-1.644531-86.667969-4.886719-9.285157-1.050781-18.835938-2.625-24.625-9.125-5.113281-5.730469-6.144531-13.941406-6.820313-22.5625-4-51.207031-3.25-103.0625 2.234375-154.132812.957031-8.941407 2.394531-18.15625 8.398438-23.960938 6.058593-5.84375 15.433593-6.925781 24.515625-7.53125l.132812-.003906c.09375 0 .183594-.007813.273438-.015625l2.164062-.15625-.503906 58.109375-2.019531-.039063c-.25-.003906-.507813-.003906-.769531-.003906-5.429688 0-9.066407 1.292969-11.445313 4.078125-2.761719 3.234375-2.882813 7.660157-2.96875 10.894531l-2.152344 85.085938c-.226562 9.03125.027344 18.40625 5.773438 25.050781 3.519531 4.074219 8.914062 6.503907 14.4375 6.503907 1.769531 0 3.507812-.246094 5.167969-.734376 3.671874-1.082031 7.039062-3.390624 9.480468-6.503906l1.6875-2.152344 1.539063 2.257813c3.835937 5.628906 10.207031 9.191406 16.628906 9.296875l.363281.003906c5.6875 0 11.464844-2.730468 15.457032-7.308594l1.773437-2.03125 1.429687 2.285157c2.226563 3.558593 5.601563 6.292969 9.5 7.699219 2.292969.824218 4.761719 1.242187 7.335938 1.242187 5.042969 0 10.378906-1.628906 15.023438-4.585937 3.796874-2.414063 7.324218-5.683594 10.785156-9.996094l1.878906-2.339844 1.4375 2.632812c3.171875 5.824219 8.507812 10.179688 14.636719 11.945313 2.082031.601563 4.265625.90625 6.492187.90625 6.945313 0 13.777344-2.984375 18.277344-7.980469 5.601562-6.226562 7.484375-14.789062 8.804688-22.328125 4.460937-25.414062 4.441406-51.191406 4.421874-76.125v-.167969c-.011718-2.628906-.011718-5.269531-.011718-7.914062 0-2.535156 0-5.96875-1.972656-8.667969-3.019532-4.125-9.03125-4.234375-11.925782-4.289062-1.074218-.019531-2.152344-.050781-3.234375-.078125l-3.648437-.09375 3.148437-62.574219 2.089844.207031c.933594.089844 1.871094.179688 2.804687.265625.984376.09375 1.964844.1875 2.945313.285157 1.140625.117187 2.359375.175781 3.84375.230468 4.285156.1875 9.054687.394532 11.515625 2.6875 2.886719 2.683594 4.585938 8.210938 6.214844 14.121094l.347656 1.269531c3.582031 12.753907 3.78125 26.683594 3.953125 38.972657l1.660156 120.019531c.152344 11.277343-.226562 22.019531-6.484375 29.519531-7.214844 8.644531-19.917968 10.1875-31.261718 10.953125-17.207032 1.171875-34.722657 1.765625-52.0625 1.765625zm0 0" fill="#f9d889"/><path d="m171.566406 114.492188c-16.96875 0-34.097656-.828126-50.910156-2.46875-7.523438-.742188-15.332031-1.84375-20.8125-6.378907-4.960938-4.113281-7.078125-10.203125-7.980469-14.585937-1.210937-5.796875-1.085937-11.890625-.960937-17.785156.140625-7.1875.289062-14.5625 1.953125-21.523438 1.257812-5.320312 4.027343-12.722656 10.0625-17.78125 7.957031-6.671875 19.617187-7.582031 29.917969-7.914062 5.808593-.1875 11.695312-.28125 17.5-.28125 4.644531 0 9.3125.0625 13.875.179687 18.582031.472656 37.304687 1.902344 55.652343 4.246094 16.121094 2.0625 26.28125 4.3125 31.441407 18.144531 3.558593 9.570312 2.925781 20.539062 2.363281 30.214844-.585938 10.277344-1.640625 19.960937-8.070313 26.066406-5.535156 5.25-13.855468 6.476562-21.898437 7.277344-17.210938 1.71875-34.753907 2.589844-52.132813 2.589844zm1.628906-45.617188c-6.988281 0-14.222656.820312-21.5 2.441406-1.550781.34375-3.582031.835938-5.566406 1.585938-1.976562.742187-3.636718 1.636718-5.082031 2.726562-3.761719 2.839844-5.757813 7.089844-5.214844 11.09375.621094 4.632813 4.277344 8.417969 10.863281 11.265625 8.074219 3.484375 17.058594 5.324219 25.984376 5.324219 8.105468 0 15.988281-1.449219 23.433593-4.304688 7.425781-2.851562 11.71875-7.484374 11.777344-12.707031.035156-2.996093-1.296875-7.402343-7.835937-11.414062-5.269532-3.222657-11.023438-4.472657-12.664063-4.777344-4.476563-.820313-9.253906-1.234375-14.195313-1.234375zm55.476563-22.695312c-1.90625 0-3.796875.445312-5.628906 1.320312-6.1875 2.941406-10.078125 9.507812-9.683594 16.339844.339844 5.933594 3.988281 10.648437 9.757813 12.621094 1.417968.484374 2.929687.730468 4.492187.730468 5.394531 0 10.5625-2.863281 13.167969-7.292968 3.417968-5.832032 2.335937-13.949219-2.570313-19.304688-2.613281-2.84375-6-4.414062-9.535156-4.414062zm-114.417969 0c-3.539062 0-6.921875 1.566406-9.527344 4.414062-4.914062 5.359375-5.992187 13.480469-2.570312 19.304688 2.597656 4.433593 7.761719 7.292968 13.15625 7.292968 1.566406 0 3.074219-.246094 4.488281-.730468 5.773438-1.96875 9.421875-6.6875 9.765625-12.621094.390625-6.832032-3.496094-13.398438-9.675781-16.339844-1.835937-.875-3.730469-1.320312-5.636719-1.320312zm0 0" fill="#f9d889"/><path d="m209.445312 202.242188c-6.273437-.332032-12.496093-.679688-18.648437-1.03125l-1.414063-.082032c-7.644531-.433594-15.550781-.878906-23.375-1.257812l-36.746093-1.792969-.042969-60.449219 1.933594-.0625c7.976562-.269531 16.042968-.433594 23.984375-.480468 1.488281-.011719 2.972656-.015626 4.460937-.015626 17.679688 0 35.679688.554688 53.503906 1.648438l1.992188.121094-3.660156 63.507812zm0 0" fill="#f9d889"/><path d="m59.625 217.898438c-14.394531-1.816407-27.589844-12.699219-32.113281-26.480469-4.53125-13.804688-.328125-30.425781 10.226562-40.417969 7.050781-6.675781 16.980469-10.503906 27.238281-10.503906 2.902344 0 5.773438.316406 8.523438.9375l3.332031.75-2.28125 2.535156c-6.035156 6.714844-7.5 16.164062-8.480469 25.269531-1.617187 15.070313-2.847656 30.597657-3.652343 46.148438l-.125 2.417969s-2.574219-.636719-2.667969-.65625zm0 0" fill="#f9d889"/><path d="m26.074219 355.910156c-3.144531 0-6.164063-.734375-8.726563-2.128906-6.222656-3.371094-10.496094-10.925781-10.625-18.792969-.140625-8.359375 6.535156-22.699219 15.359375-28.652343 2.667969-1.804688 5.332031-2.71875 7.917969-2.71875 1.527344 0 3.058594.316406 4.546875.945312 6.609375 2.804688 11.730469 8.871094 14.050781 16.652344 2.507813 8.386718 1.359375 17.628906-2.996094 24.117187-4.316406 6.425781-11.980468 10.578125-19.527343 10.578125zm0 0" fill="#f9d889"/><path d="m173.859375 293.296875c-2.308594 0-4.628906-.21875-6.890625-.648437-12.503906-2.375-23.871094-10.957032-29.664062-22.390626-5.328126-10.480468-6.035157-23.464843-1.890626-34.726562l.488282-1.324219 1.410156.015625c24.992188.308594 50.253906 1.871094 74.6875 3.382813l3.378906.210937-.039062 1.917969c-.113282 5.648437-1.796875 18.019531-2.359375 20.460937-1.613281 6.824219-3.730469 14.503907-8.507813 19.34375-8.75 8.871094-19.625 13.757813-30.613281 13.757813zm0 0" fill="#939baa"/><path d="m120.746094 45.6875c-6.117188-2.910156-12.820313-1.546875-17.5 3.554688-5.488282 5.988281-6.675782 15.101562-2.820313 21.671874 3.023438 5.152344 8.96875 8.277344 14.890625 8.277344 1.738282 0 3.472656-.269531 5.132813-.835937 6.566406-2.238281 10.722656-7.621094 11.113281-14.398438.441406-7.636719-3.90625-14.976562-10.816406-18.269531zm2.769531 17.800781c-.117187 2.023438-1.011719 5.648438-5.664063 7.234375-3.765624 1.285156-8.460937-.460937-10.472656-3.886718-2.363281-4.027344-.832031-9.265626 1.8125-12.144532 1.621094-1.769531 4.34375-3.503906 8.089844-1.722656 3.921875 1.867188 6.484375 6.191406 6.234375 10.519531zm0 0" fill="#231f20"/><path d="m222.476562 78.355469c1.660157.566406 3.394532.835937 5.132813.835937 5.921875 0 11.863281-3.125 14.890625-8.273437 3.855469-6.570313 2.667969-15.6875-2.824219-21.675781-4.675781-5.101563-11.382812-6.464844-17.496093-3.550782-6.914063 3.289063-11.261719 10.628906-10.816407 18.265625.390625 6.777344 4.542969 12.160157 11.113281 14.398438zm3.167969-25.386719c1.113281-.53125 2.136719-.75 3.066407-.75 2.199218 0 3.882812 1.226562 5.023437 2.472656 2.644531 2.878906 4.175781 8.117188 1.8125 12.144532-2.015625 3.425781-6.710937 5.171874-10.472656 3.890624-4.65625-1.589843-5.546875-5.214843-5.664063-7.238281-.25-4.328125 2.3125-8.652343 6.234375-10.519531zm0 0" fill="#231f20"/><path d="m196.835938 100.875c8.226562-3.160156 12.984374-8.464844 13.054687-14.554688.039063-3.507812-1.453125-8.636718-8.789063-13.132812-5.613281-3.4375-11.628906-4.726562-13.339843-5.039062-11.15625-2.042969-23.777344-1.621094-36.496094 1.214843-3.867187.863281-7.925781 2.027344-11.425781 4.667969-4.332032 3.277344-6.628906 8.246094-5.992188 12.96875.722656 5.367188 4.777344 9.683594 12.050782 12.820312 8.460937 3.65625 17.621093 5.492188 26.78125 5.492188 8.21875 0 16.4375-1.476562 24.15625-4.4375zm4.992187-14.644531c-.042969 3.8125-6.042969 6.410156-7.882813 7.117187-2.355468.902344-4.765624 1.632813-7.210937 2.222656-.359375-6.4375-.289063-12.929687.203125-19.363281 6.332031 1.320313 14.941406 5.472657 14.890625 10.023438zm-59.988281-.308594c-.242188-1.789063.910156-3.980469 2.863281-5.457031 2.269531-1.714844 5.339844-2.566406 8.316406-3.230469.902344-.203125 1.796875-.367187 2.695313-.539063l-.402344 17.984376c-2.105469-.640626-4.1875-1.382813-6.214844-2.257813-3.09375-1.335937-6.863281-3.546875-7.257812-6.5zm21.496094 10.597656.46875-21.046875c5.1875-.554687 10.261718-.675781 15.109374-.320312-.574218 7.234375-.640624 14.546875-.191406 21.78125-5.121094.515625-10.300781.382812-15.386718-.414063zm0 0" fill="#231f20"/><path d="m342.136719 350c-.113281-.214844-.246094-.40625-.390625-.59375 2.464844-4.21875 3.90625-9.175781 3.996094-14.3125.15625-9.175781-5.914063-23.492188-15.148438-31.53125 10.894531-29.4375 4.289062-69.367188-16.125-97.699219.4375-.761719.859375-1.53125 1.25-2.320312 6.988281-14.199219 5.078125-32.070313-4.757812-44.46875-9.40625-11.851563-25.328126-17.769531-40.179688-15.144531-.871094-1.460938-1.867188-2.789063-3.035156-3.871094-4.109375-3.820313-10.351563-4.082032-15.363282-4.296875-1.277343-.050781-2.476562-.101563-3.488281-.207031-11.945312-1.21875-23.964843-2.191407-36.011719-2.921876l.175782-13.703124c3.753906-.296876 7.503906-.621094 11.25-.996094 8.695312-.871094 18.550781-2.347656 25.464844-8.910156 8.019531-7.609376 9.3125-19.023438 9.949218-30.058594.101563-1.738282.203125-3.515625.285156-5.316406l15-1.214844c.421876 1.511718 1.023438 2.980468 1.8125 4.371094 3.59375 6.339843 10.59375 10.269531 17.789063 10.269531 1.117187 0 2.238281-.097657 3.351563-.289063 8.296874-1.449218 15.085937-8.261718 16.507812-16.558594 1.59375-9.308593-2.832031-17.902343-11.28125-21.890624-8.453125-3.984376-17.902344-1.949219-24.074219 5.199218-2.660156 3.078125-4.242187 6.90625-4.714843 10.859375l-14.238282 1.152344c-.097656-6.441406-.835937-13.023437-3.175781-19.3125-6.800781-18.265625-21.828125-20.1875-36.355469-22.046875-7.75-.988281-15.566406-1.808594-23.40625-2.472656.214844-6.8125-2.941406-13.597656-8.492187-17.683594-6.542969-4.820312-15.695313-5.367188-22.769531-1.363281-6.15625 3.484375-10.160157 10.089843-10.59375 17.078125-7.585938-.070313-15.195313.011718-22.726563.25-11.308594.363281-24.164063 1.410156-33.613281 9.328125-5.78125 4.84375-9.957032 12.113281-12.074219 21.023437-1.195313 5.03125-1.664063 10.101563-1.890625 15.117188l-13.238281-1.070313c-.46875-3.953125-2.050781-7.78125-4.710938-10.859375-6.171875-7.148437-15.621093-9.1875-24.074219-5.199218-8.449218 3.988281-12.878906 12.582031-11.28125 21.886718 1.421876 8.300782 8.207032 15.113282 16.503907 16.5625 1.117187.191406 2.238281.289063 3.351562.289063 7.199219 0 14.199219-3.929688 17.792969-10.269531.785156-1.390626 1.390625-2.859376 1.8125-4.371094l13.609375 1.101562c-.121094 6.121094-.21875 12.445313 1.09375 18.761719 1.105469 5.339844 3.75 12.796875 10.054687 18.019531 6.804688 5.636719 15.632813 6.914063 24.089844 7.738282 4.347656.425781 8.703125.792968 13.0625 1.113281l-.394531 12.285156c-10.0625.3125-20.128906.777344-30.097656 1.429687-7.453125.488282-15.113281 1.304688-21.640625 4.546876-.050782-.023438-.097656-.054688-.148438-.078126-15.894531-6.195312-34.898437-2.480468-47.285156 9.246094-12.386719 11.730469-17.136719 30.5-11.816406 46.707032 1.714844 5.222656 4.429687 10.039062 7.886718 14.238281-.171874.164062-.339843.339843-.484374.539062-19.746094 26.839844-24.957032 64.253907-13.34375 95.484375-9.234376 8.039063-15.304688 22.351563-15.144532 31.527344.089844 5.140625 1.527344 10.09375 3.992188 14.316406-.140625.183594-.277344.378906-.386719.59375-5.308594 10.140625-4.980469 23.0625.839844 32.921875 5.816406 9.855469 16.972656 16.390625 28.414062 16.644531h.089844c1.488281 0 2.859375-.820312 3.5625-2.136718.714844-1.34375.609375-2.976563-.269531-4.222656-2.335938-3.296876-4.75-6.707032-5.839844-10.351563-.804688-2.6875-.949219-6.4375 1.0625-8.894531.796875-.976563 2.1875-1.671875 3.539062-1.773438.5625-.039062 1.617188-.007812 2.355469.667969.984375.894531 1.628907 2.695313 2.316407 4.605469 1.1875 3.308594 2.667968 7.425781 7.054687 9.214844 4.148437 1.691406 9.332031.070312 12.320313-3.851563 2-2.621094 3.054687-6.03125 3.226562-10.421875.386719-9.851562-3.507812-19.925781-10.410156-26.964844 3.808594-7.617187 4.539062-17.050781 1.882812-25.960937-1.839844-6.171875-5.171875-11.472657-9.535156-15.398438-.019531-.082031-.019531-.167969-.039062-.25-6.785157-26.769531-2.15625-56.664062 12.371093-80.160156.578125.097656 1.15625.183594 1.734375.257813.171875.019531.339844.03125.503906.03125.207032 0 .410157-.027344.609376-.058594-1.421876 33.71875-.839844 67.558594 1.78125 101.121094.726562 9.304687 1.96875 18.984374 8.332031 26.121093 7.21875 8.097657 18.484375 9.984375 28.476562 11.117188 3.484375.394531 6.976563.765625 10.472657 1.113281-5.003907 14.722656-10.234376 31.1875-9 48 1.730468 23.628906 16.253906 38.320312 29.875 42.402344.386718.113281.777343.167968 1.160156.167968.152344 0 .304687-.019531.453125-.035156-.125 7.503906.140625 15.011719.808593 22.476563.835938 9.371093 2.894532 21.011719 11.460938 27.917969 6.875 5.542968 15.832031 6.382812 23.027344 7.058593 3.101562.289063 6.777344.636719 10.65625.636719 6.957031 0 14.578125-1.109375 20.773437-5.621094 9.839844-7.164062 12.527344-20.078125 13.769531-30.53125 1.054688-8.878906 1.699219-17.25 1.941407-25.183594 14.78125-8.378906 26.25-22.4375 31.472656-38.609374 4.925781-15.257813 4.242187-32.242188-1.804687-47.082032 11.71875-1.1875 23.007812-3.996094 30.261718-12.679687 7.589844-9.085938 8.0625-21.027344 7.890625-33.492188l-1.273437-91.996093c3.21875-.199219 6.394531-.785157 9.464844-1.722657 13.851562 23.269531 18.164062 52.511719 11.511718 78.75-.019531.082031-.023437.164063-.039062.25-4.363282 3.925781-7.695313 9.226563-9.535156 15.394531-2.65625 8.914063-1.925782 18.347657 1.882812 25.960938-6.902344 7.042969-10.796875 17.113281-10.410156 26.964844.171875 4.394531 1.226562 7.804687 3.226562 10.421875 2.992188 3.925781 8.175782 5.546875 12.320313 3.851562 4.386719-1.785156 5.867187-5.90625 7.054687-9.214843.6875-1.90625 1.332032-3.707032 2.316406-4.605469.742188-.675781 1.796876-.707031 2.355469-.667969 1.351563.101562 2.742188.796875 3.539063 1.773438 2.007812 2.460937 1.867187 6.207031 1.0625 8.894531-1.089844 3.644531-3.503906 7.054687-5.839844 10.355469-.878906 1.242187-.984375 2.875-.269531 4.21875.703125 1.320312 2.070312 2.140624 3.5625 2.140624.027343 0 .058593-.003906.089843-.003906 11.441407-.253906 22.597657-6.785156 28.414063-16.644531 5.816406-9.855469 6.148437-22.78125.839844-32.921875zm-29.480469-73.289062c-.085938-4.429688-.421875-8.855469-1.011719-13.246094 4.699219-2.414063 10.253907-3.308594 15.484375-2.503906.621094 5.460937.800782 10.898437.535156 16.210937-4.828124-1.554687-10.085937-1.722656-15.007812-.460937zm13.199219-24.007813c-5.320313-.421875-10.707031.445313-15.625 2.523437-1.058594-5.046874-2.457031-10.015624-4.175781-14.863281 4.335937-3.09375 9.457031-5.027343 14.757812-5.542969 2.1875 5.832032 3.875 11.839844 5.042969 17.882813zm-13.351563 32.515625c4.523438-1.789062 9.875-1.671875 14.359375.253906-.683593 4.71875-1.757812 9.28125-3.234375 13.609375-4.214844-1.78125-8.511718-2.007812-12.667968-.644531.78125-4.363281 1.292968-8.78125 1.542968-13.21875zm-152.789062 23.382812c-2.15625-.347656-4.203125 1.097657-4.597656 3.25-.050782.261719-.089844.527344-.125.789063-1.214844 6.621094-7.703126 12.003906-14.429688 11.898437-6.949219-.121093-13.398438-6.066406-14.085938-12.980468-.199218-2.03125-1.886718-3.589844-3.925781-3.632813-.03125-.003906-.058593-.003906-.085937-.003906-2.003906 0-3.707032 1.476563-3.992188 3.464844-.679687 4.808593-4.410156 9.121093-9.070312 10.492187-4.65625 1.371094-10.125-.242187-13.300782-3.914062-4.335937-5.019532-4.507812-12.769532-4.300781-20.9375l2.15625-85.066406c.070313-2.910157.242188-5.644532 1.511719-7.125 1.683594-1.96875 5.519531-2.0625 9.421875-1.875l60.820313 2.964843c8.285156.402344 16.652343.878907 24.746093 1.339844 17.46875.992187 35.53125 2.015625 53.59375 2.367187 2.917969.054688 6.046875.3125 7.140625 1.808594.8125 1.113282.8125 3.410156.8125 5.089844-.003906 2.644531 0 5.285156.003906 7.925781.027344 25.863281.054688 50.292969-4.324218 75.230469-1.234375 7.015625-2.816406 14.285156-7.347656 19.320312-4.488282 4.988282-12.125 7.171876-18.574219 5.308594-6.449219-1.863281-11.746094-7.785156-12.878907-14.394531-.28125-1.628906-1.523437-2.921875-3.140624-3.261719-1.613282-.34375-3.273438.332032-4.191407 1.707032-3.148437 4.730468-7.53125 10.644531-13.464843 14.417968-5.597657 3.554688-11.972657 4.585938-17.046876 2.757813-5.019531-1.8125-8.601562-7.078125-8.070312-11.707031.039062-.238282.078125-.476563.109375-.714844.289063-2.171875-1.203125-4.175782-3.363281-4.519532zm-4.5625-169.511718c19.210937-.105469 38.558594.441406 57.832031 1.621094l-3.433594 59.53125c-6.265625-.324219-12.492187-.679688-18.640625-1.027344-8.109375-.460938-16.492187-.9375-24.808594-1.339844l-34.839843-1.699219-.042969-56.613281c7.988281-.265625 15.984375-.433594 23.933594-.472656zm-31.957032 56.691406-12.019531-.585938.472657-54.757812c3.828124-.214844 7.664062-.398438 11.507812-.5625zm94.40625 4.863281 3.429688-59.386719c4.425781.3125 8.84375.652344 13.253906 1.03125l-2.964844 58.921876c-4.582031-.160157-9.15625-.351563-13.71875-.566407zm67.613282-141.839843c2.777344-3.214844 6.074218-4.398438 9.144531-4.398438 1.953125 0 3.8125.480469 5.386719 1.222656 4.046875 1.90625 7.949218 6.386719 6.777344 13.230469-.832032 4.84375-5.105469 9.132813-9.949219 9.980469-4.835938.847656-10.316407-1.738282-12.738281-6.015625-2.425782-4.273438-1.832032-10.300781 1.378906-14.019531zm-115.28125-49.125c4.285156-2.425782 10.050781-2.082032 14.019531.839843 3.269531 2.410157 5.226563 6.507813 5.226563 10.570313-8.277344-.582032-16.5625-.988282-24.820313-1.199219-.300781-.007813-.605469-.007813-.90625-.015625.386719-4.152344 2.851563-8.136719 6.480469-10.195312zm-107.539063 63.144531c-2.421875 4.277343-7.902343 6.863281-12.742187 6.015625s-9.117188-5.136719-9.945313-9.980469c-1.175781-6.84375 2.730469-11.324219 6.777344-13.230469 1.574219-.746094 3.433594-1.222656 5.382813-1.222656 3.070312 0 6.371093 1.183594 9.144531 4.398438 3.210937 3.71875 3.804687 9.746093 1.382812 14.019531zm38.726563 31.28125c-4.503906-3.730469-6.457032-9.371094-7.304688-13.449219-1.15625-5.558594-1.035156-11.550781-.917968-17.34375.140624-7.042969.285156-14.324219 1.898437-21.101562 1.195313-5.027344 3.796875-12.003907 9.410156-16.707032 7.476563-6.265625 18.730469-7.128906 28.691407-7.449218 10.359374-.332032 20.875-.367188 31.257812-.101563 18.488281.46875 37.148438 1.894531 55.449219 4.234375 15.328125 1.960938 24.96875 3.824219 29.824219 16.863281 3.417968 9.1875 2.796874 19.953125 2.246093 29.449219-.570312 9.816406-1.566406 19.089844-7.453125 24.675781-5.070312 4.8125-13.011718 5.964844-20.71875 6.738281-34.046875 3.402344-68.585937 3.445313-102.648437.117188-7.21875-.707031-14.683594-1.742188-19.734375-5.925781zm40.0625 15.574219c10.109375.582031 20.246094.878906 30.382812.878906 11.148438 0 22.300782-.355469 33.421875-1.054688l-.164062 12.683594c-16.585938-.855469-33.203125-1.253906-49.714844-1.164062-4.753906.027343-9.523437.101562-14.296875.203124zm-118.417969 179.40625c-1.53125-4.386719-2.703125-8.898438-3.53125-13.476563 4.546875-2.054687 10.039063-2.21875 14.664063-.390625.25 4.4375.757812 8.855469 1.539062 13.21875-4.152344-1.363281-8.453125-1.136719-12.671875.648438zm-4.730469-37.902344c5.578125-1.160156 11.652344-.324219 16.722656 2.28125-.59375 4.390625-.925781 8.816406-1.011718 13.246094-5.128906-1.316407-10.621094-1.074219-15.617188.667968-.484375-5.375-.515625-10.800781-.09375-16.195312zm18.136719-5.957032c-5.382813-2.273437-11.320313-3.09375-17.121094-2.371093 1.019531-6.191407 2.644531-12.273438 4.839844-18.136719 5.894531.238281 11.65625 2.222656 16.457031 5.644531-1.71875 4.847657-3.117187 9.820313-4.175781 14.863281zm18.710937 116.863282c-.105468 2.679687-.621093 4.589844-1.582031 5.847656-.742187.976562-2.109375 1.585938-2.867187 1.277344-.984375-.402344-1.632813-2.035156-2.511719-4.480469-.941406-2.621094-2.007813-5.589844-4.464844-7.832031-2.203125-2.011719-5.175781-2.988282-8.382812-2.753906-3.5625.261718-7 2.023437-9.195313 4.714843-3.398437 4.160157-4.351562 10.257813-2.539062 16.304688.484375 1.628906 1.132812 3.175781 1.878906 4.644531-5.441406-2.085938-10.210938-5.972656-13.171875-10.988281-3.96875-6.726563-4.574219-15.324219-1.753906-22.597657 1.285156 1.105469 2.671875 2.078126 4.15625 2.882813 3.589843 1.953125 7.589843 2.878906 11.652343 2.878906 7.890626 0 15.992188-3.507812 21.734376-9.75 4.710937 5.398438 7.324218 12.699219 7.046874 19.851563zm-8.199218-50.308594c2.335937 7.835938 1.285156 16.429688-2.742188 22.429688-5.800781 8.640624-17.542968 12.214843-25.640625 7.816406-5.605469-3.046875-9.453125-9.910156-9.578125-17.074219-.132812-7.691406 6.296875-21.4375 14.484375-26.964844 3.707031-2.503906 7.160157-3.019531 10.566407-1.582031 6.054687 2.5625 10.761718 8.164062 12.910156 15.375zm-3.289063-89.101562c-4.871093-3.109376-10.425781-5.09375-16.164062-5.785157 2.292969-4.753906 4.988281-9.304687 8.082031-13.570312 4.078125 3.492187 8.757812 6.28125 13.796875 8.167969-2.121094 3.605468-4.023437 7.347656-5.714844 11.1875zm17.027344-16.640626c-.160156-.042968-.316406-.089843-.484375-.113281-13.675781-1.703125-26.230469-12.039062-30.53125-25.132812-4.296875-13.097657-.308594-28.863281 9.703125-38.339844 8.78125-8.3125 22.140625-11.730469 33.957031-9.066406-6.417968 7.132812-7.96875 16.921875-8.984375 26.390625-1.648437 15.359375-2.863281 30.792968-3.660156 46.261718zm47.734375 194.75c-1.167969-15.898437 4.28125-32.195312 9.214844-46.652343 4.871094.433593 9.75.832031 14.632812 1.171875-5.035156 7.191406-7.902344 15.957031-7.972656 24.71875-.085938 10.40625 3.765625 20.894531 10.5625 28.777344.328125.378906.71875.664062 1.136719.886718-1.210938 3.75-2.09375 7.882813-2.640625 12.402344-.550782 4.589844-.933594 9.203125-1.1875 13.828125-14.882813-4.714844-22.742188-21.453125-23.746094-35.132813zm102.746094-44.011718c4.636718 6.714844 6.875 15.210937 6.132812 23.332031-.578125 6.359375-2.996094 12.605469-6.785156 17.785156-1.914062-5.367187-5.132812-9.433593-9.347656-11.6875-3.289063-1.757812-6.8125-2.257812-10.429688-2.648437-7.074218-.769532-14.660156-1.355469-22.199218-.453125-.660157.078125-1.324219.167969-1.984376.269531-12.453124 1.929688-21.515624 8.046875-27.117187 18.238281-4.578125-6.152343-7.140625-13.859375-7.078125-21.519531.066406-8.480469 3.34375-16.972656 8.984375-23.304688.238281-.265624.417969-.5625.574219-.871093 14.765625.84375 29.566406 1.269531 44.359375 1.269531 8.300781 0 16.597656-.140625 24.890625-.410156zm-6.585938 99.539062c-.003906 0-.007812 0-.011718 0l-64.457032.191406c-.253906-5.765624-.277344-11.546874-.042968-17.316406l65.394531.445313h.027343c.261719 0 .511719-.03125.757813-.078125-.140625 5.410156-.46875 11.015625-.996094 16.824218-.21875-.039062-.441406-.066406-.671875-.066406zm-63.21875-33.257812c.429688-3.582032 1.074219-6.84375 1.933594-9.796875.085938.003906.164062.023437.25.027343l61.726562.453126c.625 5.65625.972657 11.632812 1.039063 17.914062-.257813-.050781-.523437-.082031-.792969-.082031l-64.949218-.441407c.21875-2.695312.46875-5.390624.792968-8.074218zm5.222656-17.8125c4.402344-7.867188 11.371094-12.382813 21.203126-13.902344.566406-.089844 1.136718-.164062 1.703124-.234375 6.746094-.800781 13.777344-.25 20.375.464844 2.910157.316406 5.480469.664062 7.5 1.746093 4.574219 2.445313 6.132813 8.652344 6.585938 11.207032.070312.378906.125.765625.191406 1.144531zm47.265626 84.617187c-6.636719 4.832031-16.054688 4.398438-25.933594 3.472657-6.117188-.574219-13.734375-1.289063-18.71875-5.308594-6.203125-5-7.796875-14.574219-8.492188-22.355469-.03125-.367187-.050781-.738281-.082031-1.101563l63.792969-.191406c-.019532.171875-.035156.34375-.058594.515625-1.046875 8.824219-3.191406 19.640625-10.507812 24.96875zm44.253906-90.285156c-4.117188 12.75-12.636719 24.003906-23.707032 31.535156-.105468-8.257812-.691406-16.015625-1.761718-23.347656.003906-.003906.007812-.003906.011718-.007813 7.144532-7.082031 11.769532-16.894531 12.683594-26.914062.757813-8.339844-1.042968-16.996094-4.980468-24.429688 5.042968-.222656 10.082031-.488281 15.113281-.808593 6.292969 13.648437 7.261719 29.671875 2.640625 43.972656zm29.941406-62.453125c-6.707031 8.035156-18.933594 9.5-29.863281 10.242188-46 3.128906-92.554688 2.078124-138.367188-3.117188-8.902343-1.007812-18.035156-2.492188-23.363281-8.46875-4.699219-5.269531-5.667969-13.121094-6.3125-21.382812-3.992188-51.085938-3.246094-102.820313 2.222656-153.761719.917969-8.582031 2.28125-17.40625 7.804688-22.742188 5.582031-5.386719 14.554687-6.394531 23.261718-6.96875.136719-.007812.277344-.011719.417969-.023437l-.46875 53.921875c-4.148437-.082031-10.003906.363281-13.773437 4.769531-3.230469 3.78125-3.359375 8.820312-3.445313 12.160156l-2.15625 85.066406c-.238281 9.421876.046875 19.222657 6.261719 26.414063 5.253906 6.082031 13.964844 8.644531 21.675781 6.378906 4.183594-1.230469 7.84375-3.8125 10.5-7.1875 4.058594 5.960938 10.890625 10.046875 18.25 10.171875 6.65625.128906 13.050781-3.050781 17.351563-8 2.375 3.796875 6.058594 6.914063 10.527344 8.527344 2.523437.910156 5.230468 1.355469 8.007812 1.355469 5.378906 0 11.027344-1.671875 16.09375-4.890625 4.570312-2.902344 8.269531-6.683594 11.28125-10.4375 3.332031 6.132812 9.078125 10.957031 15.835938 12.910156 9.457031 2.730469 20.222656-.347656 26.804687-7.660156 5.960937-6.625 7.925781-15.511719 9.296875-23.320313 4.5-25.636719 4.46875-51.5625 4.441406-76.636719 0-2.632812-.003906-5.269531-.003906-7.910156.003906-2.632812.007812-6.613281-2.363281-9.855468-3.601563-4.917969-10.285157-5.046876-13.496094-5.109376-1.605469-.03125-3.214844-.074218-4.820313-.113281l2.941407-58.429687c1.917969.183594 3.835937.351562 5.75.546875 1.25.128906 2.570312.183593 3.96875.242187 3.691406.15625 8.285156.351563 10.214843 2.144532 2.710938 2.523437 4.484376 8.941406 5.65625 13.191406l.351563 1.269531c3.515625 12.535156 3.707031 26.34375 3.875 38.527344l1.660156 119.96875c.148438 10.886719-.195312 21.238281-6.019531 28.207031zm12.417969-148.289062c-.175781-12.675782-.375-27.042969-4.171875-40.589844l-.34375-1.238282c-.460938-1.664062-.972656-3.519531-1.589844-5.410156 11.332031-1.261718 23.476562 3.574219 30.550781 12.488282 7.8125 9.851562 9.390625 24.613281 3.839844 35.898437-5.144531 10.449219-16.371094 17.832031-28.007813 18.742187zm29.25 13.90625c3.082031 4.535156 5.796875 9.363281 8.128906 14.378906-5.171875.84375-10.152344 2.738281-14.574219 5.558594-1.613281-3.667969-3.421875-7.242188-5.429687-10.699219 4.457031-2.355469 8.496093-5.492188 11.875-9.238281zm-9.730469 109.039062c2.148438-7.210938 6.855469-12.8125 12.910156-15.375 1.25-.527344 2.503906-.792969 3.777344-.792969 2.195312 0 4.445312.789063 6.789062 2.375 8.1875 5.527344 14.617188 19.269531 14.484376 26.964844-.125 7.164063-3.972657 14.023437-9.578126 17.070313-8.097656 4.402343-19.839843.824218-25.640624-7.8125-4.027344-6-5.078126-14.59375-2.742188-22.429688zm34.636719 57.042969c-2.960938 5.015625-7.730469 8.902343-13.171875 10.988281.742187-1.46875 1.390625-3.015625 1.878906-4.644531 1.808594-6.046875.859375-12.144531-2.539062-16.304688-2.195313-2.691406-5.632813-4.453125-9.199219-4.714843-3.199219-.234376-6.175781.742187-8.378907 2.753906-2.460937 2.242187-3.523437 5.210937-4.46875 7.832031-.875 2.445313-1.527343 4.078125-2.507812 4.476563-.757812.3125-2.125-.296876-2.867188-1.273438-.960937-1.257812-1.476562-3.167969-1.582031-5.847656-.28125-7.152344 2.335938-14.453125 7.046875-19.855469 5.738282 6.246094 13.839844 9.753906 21.734375 9.753906 4.058594 0 8.0625-.925781 11.652344-2.878906 1.480469-.804687 2.867187-1.777344 4.152344-2.882813 2.824219 7.273438 2.21875 15.871094-1.75 22.597657zm0 0" fill="#231f20"/><path d="m173.890625 299.363281c12.527344 0 24.90625-5.445312 34.894531-15.5625 5.882813-5.960937 8.296875-14.585937 10.09375-22.203125.304688-1.300781 1.207032-7.242187 1.820313-12.785156 1.292969-11.675781.5625-13.726562-.523438-15.195312-.785156-1.054688-1.96875-1.703126-3.25-1.78125l-4.523437-.28125c-25.429688-1.574219-51.722656-3.199219-77.769532-3.425782-.015624 0-.027343 0-.039062 0-1.589844 0-3.03125.933594-3.679688 2.390625-6.027343 13.511719-5.660156 29.394531.980469 42.480469 6.636719 13.078125 19.640625 22.890625 33.9375 25.601562 2.679688.511719 5.371094.761719 8.058594.761719zm-34.804687-30.011719c-5.078126-10.011718-5.710938-22.472656-1.789063-33.128906 24.945313.308594 50.175781 1.871094 74.605469 3.378906l1.441406.089844c-.117188 5.441406-1.78125 17.761719-2.3125 20.054688-1.546875 6.550781-3.566406 13.917968-7.984375 18.390625-10.210937 10.34375-23.226563 14.917969-35.710937 12.546875-11.894532-2.257813-22.71875-10.433594-28.25-21.332032zm0 0" fill="#231f20"/></svg>